<?xml version="1.0" encoding="UTF-8"?> <svg xmlns="http://www.w3.org/2000/svg" width="36" height="35" viewBox="0 0 36 35" fill="none"> <g clip-path="url(#clip0)"> <path d="M31.4985 6.35742C31.8869 6.35742 32.2017 6.05138 32.2017 5.67383V2.05078C32.2017 0.91998 31.2554 0 30.0923 0H2.10791C0.944801 0 -0.00146484 0.91998 -0.00146484 2.05078V32.9492C-0.00146484 34.08 0.944801 35 2.10791 35H30.0923C31.2554 35 32.2017 34.08 32.2017 32.9492V31.0352C32.2017 30.6576 31.8869 30.3516 31.4985 30.3516C31.1102 30.3516 30.7954 30.6576 30.7954 31.0352V32.9492C30.7954 33.3262 30.48 33.6328 30.0923 33.6328H2.10791C1.72021 33.6328 1.40479 33.3262 1.40479 32.9492V2.05078C1.40479 1.67385 1.72021 1.36719 2.10791 1.36719H30.0923C30.48 1.36719 30.7954 1.67385 30.7954 2.05078V5.67383C30.7954 6.05138 31.1102 6.35742 31.4985 6.35742Z" fill="#DDA3A9"></path> <path d="M28.1263 3.28125H4.07861C3.69028 3.28125 3.37549 3.58729 3.37549 3.96484V18.252C3.37549 18.6295 3.69028 18.9355 4.07861 18.9355C4.46695 18.9355 4.78174 18.6295 4.78174 18.252V4.64844H27.4232V5.74219C27.4232 6.11974 27.7381 6.42578 28.1263 6.42578C28.5147 6.42578 28.8295 6.11974 28.8295 5.74219V3.96484C28.8295 3.58729 28.5147 3.28125 28.1263 3.28125Z" fill="#DDA3A9"></path> <path d="M4.57524 20.2979C4.44445 20.1708 4.26375 20.0977 4.07813 20.0977C3.8932 20.0977 3.7118 20.1708 3.58102 20.2979C3.45023 20.4251 3.375 20.6015 3.375 20.7812C3.375 20.961 3.45023 21.1374 3.58102 21.2646C3.7118 21.3917 3.8932 21.4648 4.07813 21.4648C4.26375 21.4648 4.44445 21.3917 4.57524 21.2646C4.70672 21.1374 4.78125 20.961 4.78125 20.7812C4.78125 20.6015 4.70672 20.4251 4.57524 20.2979Z" fill="#DDA3A9"></path> <path d="M28.1263 28.8477C27.738 28.8477 27.4232 29.1537 27.4232 29.5312V30.3516H4.78174V23.4131C4.78174 23.0355 4.46695 22.7295 4.07861 22.7295C3.69028 22.7295 3.37549 23.0355 3.37549 23.4131V31.0352C3.37549 31.4127 3.69028 31.7188 4.07861 31.7188H28.1263C28.5147 31.7188 28.8295 31.4127 28.8295 31.0352V29.5312C28.8295 29.1537 28.5147 28.8477 28.1263 28.8477Z" fill="#DDA3A9"></path> <path d="M21.7898 24.1538C21.5152 23.8868 21.0701 23.8868 20.7955 24.1538L19.4058 25.5049L18.542 24.665C17.9966 24.1348 17.1093 24.1348 16.5639 24.665L16.0018 25.2115C15.7273 25.4784 15.7273 25.9113 16.0018 26.1783C16.2764 26.4452 16.7216 26.4452 16.9963 26.1783L17.553 25.637L18.4168 26.4769C18.6895 26.742 19.0476 26.8745 19.4058 26.8745C19.764 26.8745 20.1221 26.742 20.3948 26.4769L21.7898 25.1206C22.0644 24.8537 22.0644 24.4208 21.7898 24.1538Z" fill="#DDA3A9"></path> <path d="M35.6761 14.3406C35.9859 13.8706 36.0785 13.2917 35.9298 12.7525C35.7812 12.2133 35.4035 11.757 34.8933 11.5006C34.6721 11.3895 34.5367 11.1614 34.5483 10.9196C34.575 10.362 34.3574 9.81578 33.9514 9.42101C33.5454 9.0263 32.9838 8.81445 32.41 8.8407C32.1601 8.85246 31.9267 8.72025 31.8124 8.50526C31.5487 8.00938 31.0794 7.64209 30.5248 7.49758C29.9699 7.353 29.3747 7.44303 28.8914 7.74429C28.6818 7.87499 28.4109 7.87492 28.2014 7.74429C27.718 7.44296 27.1228 7.35307 26.5681 7.49758C26.0134 7.64209 25.5441 8.00938 25.2804 8.50526C25.1661 8.72032 24.9309 8.85164 24.6828 8.8407C24.109 8.81466 23.5474 9.0263 23.1414 9.42101C22.7354 9.81578 22.5178 10.362 22.5445 10.9196C22.5561 11.1614 22.4206 11.3895 22.1995 11.5006C21.6894 11.757 21.3116 12.2132 21.163 12.7525C21.0921 13.0097 21.0767 13.276 21.113 13.5351H8.84347C8.45514 13.5351 8.14035 13.8412 8.14035 14.2187C8.14035 14.5963 8.45514 14.9023 8.84347 14.9023H21.4722C21.4571 14.9399 21.4396 14.9767 21.4167 15.0114C21.1068 15.4814 21.0143 16.0603 21.1629 16.5995C21.1833 16.6735 21.2084 16.7458 21.2372 16.8164H8.84326C8.45493 16.8164 8.14014 17.1224 8.14014 17.5C8.14014 17.8775 8.45493 18.1836 8.84326 18.1836H22.5025C22.5331 18.2617 22.5484 18.346 22.5443 18.4323C22.5176 18.99 22.7352 19.5362 23.1412 19.931C23.5472 20.3257 24.1088 20.5376 24.6826 20.5113C24.931 20.4995 25.1659 20.6317 25.2802 20.8467C25.3647 21.0056 25.4705 21.151 25.5932 21.2804V27.6647C25.5932 27.9409 25.7641 28.1899 26.0264 28.2959C26.2886 28.4019 26.5908 28.3441 26.7922 28.1493L28.5463 26.4528L30.3004 28.1493C30.4348 28.2793 30.6141 28.3483 30.7964 28.3483C30.8873 28.3483 30.979 28.3311 31.0662 28.2958C31.3285 28.1898 31.4994 27.9408 31.4994 27.6646V21.2803C31.6221 21.151 31.7279 21.0055 31.8124 20.8467C31.9267 20.6316 32.1616 20.5002 32.41 20.5112C32.9841 20.5376 33.5454 20.3257 33.9514 19.9309C34.3574 19.5361 34.575 18.99 34.5483 18.4323C34.5367 18.1905 34.6722 17.9624 34.8933 17.8513C35.4034 17.5949 35.7812 17.1387 35.9298 16.5994C36.0785 16.0601 35.9859 15.4813 35.6761 15.0113C35.5416 14.8077 35.5416 14.5443 35.6761 14.3406ZM30.0932 26.0204L29.0421 25.0039C28.7679 24.7386 28.3247 24.7386 28.0504 25.0039L26.9994 26.0204V21.9194C27.4201 21.9387 27.8417 21.8318 28.2013 21.6077C28.4109 21.477 28.6818 21.4771 28.8913 21.6077C29.2234 21.8147 29.6083 21.922 29.9966 21.922C30.0288 21.922 30.061 21.9204 30.0932 21.9189V26.0204ZM34.5714 16.2457C34.5243 16.4166 34.4092 16.5556 34.2475 16.6369C33.5399 16.9926 33.1065 17.7222 33.1435 18.4959C33.1521 18.6728 33.0857 18.8391 32.957 18.9643C32.8283 19.0895 32.6572 19.1537 32.4753 19.1457C31.6791 19.1099 30.929 19.5309 30.5631 20.219C30.4795 20.3763 30.3366 20.4881 30.1607 20.5339C29.9849 20.5796 29.8035 20.5524 29.6503 20.4568C29.3149 20.2478 28.9306 20.1433 28.5462 20.1433C28.162 20.1433 27.7776 20.2478 27.4423 20.4568C27.289 20.5523 27.1076 20.5796 26.9318 20.5339C26.7559 20.4881 26.613 20.3762 26.5293 20.219C26.1635 19.531 25.4135 19.1095 24.6172 19.1457C24.4357 19.1538 24.2642 19.0895 24.1355 18.9643C24.0066 18.8391 23.9404 18.6728 23.9489 18.4958C23.975 17.9498 23.766 17.4263 23.3924 17.0401C23.3814 17.0284 23.3702 17.017 23.3584 17.006C23.2101 16.8598 23.0382 16.734 22.8449 16.6369C22.6832 16.5556 22.5682 16.4167 22.5211 16.2457C22.474 16.0746 22.5021 15.8983 22.6004 15.7494C23.0304 15.0974 23.0304 14.2548 22.6004 13.6028C22.5022 13.4537 22.474 13.2774 22.5211 13.1064C22.5682 12.9354 22.6833 12.7965 22.845 12.7152C23.5526 12.3595 23.986 11.6298 23.949 10.8561C23.9405 10.6793 24.0068 10.513 24.1355 10.3877C24.2643 10.2625 24.4357 10.1983 24.6172 10.2064C25.4135 10.2423 26.1636 9.82111 26.5294 9.13308C26.613 8.97578 26.7559 8.86394 26.9319 8.81814C27.1077 8.77241 27.289 8.79969 27.4423 8.89525C28.113 9.31334 28.9797 9.31334 29.6502 8.89525C29.8035 8.79976 29.9848 8.77227 30.1607 8.81814C30.3366 8.86394 30.4795 8.97585 30.5631 9.13308C30.929 9.82104 31.6794 10.2425 32.4753 10.2064C32.6573 10.1983 32.8283 10.2625 32.957 10.3877C33.0858 10.513 33.1521 10.6793 33.1435 10.8561C33.1066 11.6298 33.5398 12.3595 34.2476 12.7152C34.4093 12.7965 34.5243 12.9354 34.5714 13.1064C34.6186 13.2774 34.5904 13.4537 34.4921 13.6027C34.0622 14.2547 34.0622 15.0973 34.4921 15.7493C34.5904 15.8983 34.6186 16.0746 34.5714 16.2457Z" fill="#DDA3A9"></path> <path d="M31.8901 12.8164C31.6155 12.5495 31.1703 12.5495 30.8957 12.8164L28.562 15.0854L27.633 14.1822C27.3584 13.9152 26.9132 13.9152 26.6385 14.1822C26.364 14.4491 26.364 14.882 26.6385 15.149L28.0648 16.5356C28.2021 16.6691 28.382 16.7358 28.5619 16.7358C28.7419 16.7358 28.9219 16.6691 29.0591 16.5356L31.8901 13.7832C32.1647 13.5163 32.1647 13.0834 31.8901 12.8164Z" fill="#DDA3A9"></path> <path d="M8.58256 8.2667C8.45178 8.13955 8.27037 8.06641 8.08545 8.06641C7.90053 8.06641 7.71912 8.13955 7.58834 8.2667C7.45756 8.39385 7.38232 8.57021 7.38232 8.75C7.38232 8.92979 7.45756 9.10615 7.58834 9.2333C7.71912 9.36045 7.90053 9.43359 8.08545 9.43359C8.27037 9.43359 8.45178 9.36045 8.58256 9.2333C8.71334 9.10615 8.78857 8.92979 8.78857 8.75C8.78857 8.57021 8.71334 8.39385 8.58256 8.2667Z" fill="#DDA3A9"></path> <path d="M14.1323 8.06641H10.7104C10.3221 8.06641 10.0073 8.37245 10.0073 8.75C10.0073 9.12755 10.3221 9.43359 10.7104 9.43359H14.1323C14.5207 9.43359 14.8355 9.12755 14.8355 8.75C14.8355 8.37245 14.5207 8.06641 14.1323 8.06641Z" fill="#DDA3A9"></path> <path d="M21.2936 20.0977H13.2554C12.867 20.0977 12.5522 20.4037 12.5522 20.7812C12.5522 21.1588 12.867 21.4648 13.2554 21.4648H21.2936C21.6819 21.4648 21.9967 21.1588 21.9967 20.7812C21.9967 20.4037 21.682 20.0977 21.2936 20.0977Z" fill="#DDA3A9"></path> </g> <defs> <clipPath id="clip0"> <rect width="36" height="35" fill="white"></rect> </clipPath> </defs> </svg> 