<?xml version="1.0" encoding="UTF-8"?> <svg xmlns="http://www.w3.org/2000/svg" width="37" height="36" viewBox="0 0 37 36" fill="none"> <g clip-path="url(#clip0)"> <path d="M13.1321 25.7916C13.0799 25.7771 13.0264 25.769 12.9725 25.7662C13.7641 24.9567 14.2516 23.8631 14.2516 22.6602V18.961C14.2516 18.9272 14.2483 18.8942 14.2436 18.8617C14.2484 18.7949 14.2516 18.7277 14.2516 18.6598V16.3193C14.2516 15.931 13.9281 15.6162 13.529 15.6162H8.68192C6.64078 15.6162 4.98026 17.2319 4.98026 19.2178V22.6602C4.98026 23.8631 5.46769 24.9567 6.25936 25.7662C6.20559 25.769 6.15212 25.7771 6.09994 25.7916C2.68489 26.0925 0 28.8931 0 32.2929V35.2969C0 35.6852 0.323533 36 0.722656 36H18.5092C18.9083 36 19.2318 35.6852 19.2318 35.2969V32.2929C19.2318 28.8932 16.5471 26.0926 13.1321 25.7916ZM6.42557 20.1095V19.2178C6.42557 18.0073 7.4378 17.0224 8.68192 17.0224H12.8063V18.6597C12.8063 19.484 12.1171 20.1545 11.27 20.1545H6.42557V20.1095ZM6.42557 21.5608H11.27C11.8316 21.5608 12.3574 21.4088 12.8063 21.145V22.6601C12.8063 24.3717 11.3751 25.7643 9.61595 25.7643C7.85679 25.7643 6.42557 24.3717 6.42557 22.6601V21.5608ZM11.1888 27.1706L9.61595 28.701L8.04309 27.1706H11.1888ZM17.7866 34.5938H1.44531V33.1875H4.44434C4.84346 33.1875 5.16699 32.8727 5.16699 32.4844C5.16699 32.0961 4.84346 31.7813 4.44434 31.7813H1.47169C1.71443 29.4106 3.62564 27.5121 6.04285 27.2131L9.10496 30.1925C9.24046 30.3243 9.4243 30.3984 9.61595 30.3984C9.8076 30.3984 9.99144 30.3243 10.1269 30.1925L13.1891 27.2131C15.7779 27.5333 17.7866 29.6884 17.7866 32.2929V34.5938Z" fill="#DDA3A9"></path> <path d="M30.9014 10.1755C30.8491 10.161 30.7956 10.1528 30.7417 10.15C31.5333 9.34052 32.0207 8.24695 32.0207 7.04405V3.34477C32.0207 3.31095 32.0174 3.27797 32.0127 3.24548C32.0174 3.17869 32.0207 3.11147 32.0207 3.04355V0.703125C32.0207 0.314789 31.6972 0 31.298 0H26.451C24.4098 0 22.7493 1.61571 22.7493 3.60162V7.04398C22.7493 8.24688 23.2367 9.34045 24.0283 10.15C23.9745 10.1528 23.9209 10.1609 23.8686 10.1754C20.4537 10.4764 17.769 13.277 17.769 16.6766V19.6806C17.769 20.0689 18.0926 20.3837 18.4917 20.3837H24.3062C24.7053 20.3837 25.0288 20.0689 25.0288 19.6806C25.0288 19.2923 24.7053 18.9775 24.3062 18.9775H19.2144V16.6767C19.2144 14.0723 21.223 11.9171 23.8118 11.597L26.8739 14.5763C27.0151 14.7137 27.2 14.7823 27.3849 14.7823C27.5699 14.7823 27.7549 14.7137 27.8959 14.5763L30.958 11.597C33.547 11.9172 35.5556 14.0723 35.5556 16.6767V18.9776H30.232C29.8329 18.9776 29.5094 19.2923 29.5094 19.6807C29.5094 20.069 29.8329 20.3838 30.232 20.3838H36.2783C36.6774 20.3838 37.0009 20.069 37.0009 19.6807V16.6767C37.0009 13.2771 34.3162 10.4765 30.9014 10.1755ZM27.3851 13.0848L25.8122 11.5545H28.9579L27.3851 13.0848ZM30.5755 7.04398C30.5755 8.75559 29.1442 10.1481 27.3851 10.1481C25.6259 10.1481 24.1947 8.75566 24.1947 7.04405V5.94464H29.0391C29.6007 5.94464 30.1265 5.79255 30.5755 5.52881V7.04398ZM30.5755 3.04355C30.5755 3.86782 29.8863 4.53839 29.0391 4.53839H24.1947V4.49332V3.60162C24.1947 2.39112 25.2069 1.40625 26.451 1.40625H30.5755V3.04355Z" fill="#DDA3A9"></path> <path d="M27.8947 19.1833C27.7603 19.0525 27.5738 18.9773 27.3838 18.9773C27.193 18.9773 27.0073 19.0525 26.8729 19.1833C26.7377 19.3141 26.6611 19.4955 26.6611 19.6804C26.6611 19.866 26.7377 20.0467 26.8729 20.1775C27.0073 20.309 27.193 20.3835 27.3838 20.3835C27.5738 20.3835 27.7603 20.309 27.8947 20.1775C28.0291 20.0467 28.1064 19.866 28.1064 19.6804C28.1064 19.4955 28.0291 19.3141 27.8947 19.1833Z" fill="#DDA3A9"></path> <path d="M19.3242 9.83876L16.302 6.89822V3.51562C16.302 1.57711 14.6811 0 12.6887 0H3.61328C1.62092 0 0 1.57711 0 3.51562V9.70312C0 11.6416 1.62092 13.2188 3.61328 13.2188H12.6886C14.1826 13.2188 15.4854 12.3464 16.0321 11.0391H18.8131C19.1054 11.0391 19.3689 10.8677 19.4808 10.605C19.5927 10.3423 19.5308 10.0399 19.3242 9.83876ZM15.5049 9.63281C15.1682 9.63281 14.8761 9.85901 14.8006 10.1783C14.5731 11.1405 13.7047 11.8125 12.6886 11.8125H3.61328C2.41786 11.8125 1.44531 10.8662 1.44531 9.70312V3.51562C1.44531 2.35252 2.41786 1.40625 3.61328 1.40625H12.6886C13.884 1.40625 14.8566 2.35252 14.8566 3.51562V7.18945C14.8566 7.37592 14.9328 7.5548 15.0682 7.68663L17.0685 9.63281H15.5049Z" fill="#DDA3A9"></path> <path d="M33.3874 22.7812H24.3121C22.818 22.7812 21.5152 23.6536 20.9686 24.9609H18.1875C17.8953 24.9609 17.6317 25.1323 17.5199 25.395C17.408 25.6577 17.4699 25.9601 17.6765 26.1612L20.6987 29.1018V32.4844C20.6987 34.4229 22.3196 36 24.312 36H33.3874C35.3798 36 37.0007 34.4229 37.0007 32.4844V26.2969C37.0007 24.3584 35.3798 22.7812 33.3874 22.7812ZM35.5554 32.4844C35.5554 33.6475 34.5828 34.5938 33.3874 34.5938H24.3121C23.1166 34.5938 22.1441 33.6475 22.1441 32.4844V28.8105C22.1441 28.6241 22.0679 28.4452 21.9324 28.3134L19.9322 26.3672H21.4958C21.8325 26.3672 22.1246 26.141 22.2001 25.8217C22.4276 24.8595 23.296 24.1875 24.3121 24.1875H33.3874C34.5828 24.1875 35.5554 25.1338 35.5554 26.2969V32.4844Z" fill="#DDA3A9"></path> <path d="M32.0987 27.5197C31.8166 27.2451 31.359 27.2451 31.0768 27.5197L29.1558 29.3888L28.2625 28.5197C27.9803 28.2451 27.5227 28.2451 27.2405 28.5197C26.9583 28.7943 26.9583 29.2395 27.2405 29.5141L28.6447 30.8804C28.7859 31.0178 28.9708 31.0864 29.1557 31.0864C29.3406 31.0864 29.5256 31.0178 29.6667 30.8804L32.0987 28.5141C32.3809 28.2396 32.3809 27.7944 32.0987 27.5197Z" fill="#DDA3A9"></path> <path d="M11.4377 4.6595C11.3522 3.45385 10.3534 2.482 9.11425 2.39889C8.41161 2.35185 7.74185 2.58247 7.22877 3.0485C6.72284 3.508 6.43262 4.15768 6.43262 4.83085C6.43269 5.21926 6.75622 5.53405 7.15535 5.53405C7.55447 5.53405 7.878 5.21926 7.878 4.83092C7.878 4.54187 7.99767 4.27398 8.21505 4.07654C8.43206 3.87939 8.71643 3.78151 9.01496 3.8019C9.53809 3.83699 9.95976 4.24726 9.99582 4.75625C10.0323 5.27087 9.68558 5.72565 9.17141 5.83759C8.60861 5.96007 8.21556 6.43616 8.21556 6.99528V7.3704C8.21556 7.75874 8.53909 8.07353 8.93821 8.07353C9.33733 8.07353 9.66087 7.75874 9.66087 7.3704V7.16579C10.7806 6.84081 11.5195 5.81375 11.4377 4.6595Z" fill="#DDA3A9"></path> <path d="M9.44647 9.56393C9.31205 9.43315 9.12561 9.35791 8.93555 9.35791C8.74477 9.35791 8.55904 9.43315 8.42463 9.56393C8.28949 9.69471 8.21289 9.87611 8.21289 10.061C8.21289 10.246 8.28949 10.4274 8.42463 10.5581C8.55904 10.6889 8.74477 10.7642 8.93555 10.7642C9.12561 10.7642 9.31205 10.6889 9.44647 10.5581C9.58088 10.4274 9.6582 10.246 9.6582 10.061C9.6582 9.87611 9.58088 9.69471 9.44647 9.56393Z" fill="#DDA3A9"></path> <path d="M7.84734 31.9873C7.71293 31.8565 7.52648 31.7812 7.33643 31.7812C7.14637 31.7812 6.95992 31.8565 6.82551 31.9873C6.69109 32.118 6.61377 32.2995 6.61377 32.4844C6.61377 32.6693 6.69109 32.8507 6.82551 32.9815C6.95992 33.1123 7.14637 33.1875 7.33643 33.1875C7.52648 33.1875 7.71293 33.1123 7.84734 32.9815C7.98176 32.8507 8.05908 32.6693 8.05908 32.4844C8.05908 32.2995 7.98176 32.118 7.84734 31.9873Z" fill="#DDA3A9"></path> </g> <defs> <clipPath id="clip0"> <rect width="37" height="36" fill="white"></rect> </clipPath> </defs> </svg> 