<?xml version="1.0" encoding="UTF-8"?> <svg xmlns="http://www.w3.org/2000/svg" width="40" height="40" viewBox="0 0 40 40" fill="none"> <g clip-path="url(#clip0)"> <path d="M39.3671 2.2226L38.3134 1.04187C37.8547 0.528871 37.057 0.482484 36.5342 0.939028L33.3359 3.75001C33.2505 3.74024 33.1644 3.73444 33.0784 3.73444H26.1274V2.41852C26.1271 1.04187 25.0068 -0.078125 23.6295 -0.078125H12.1271C10.7511 -0.078125 9.63136 1.04187 9.63136 2.41852V3.73444H2.67823C1.41693 3.73444 0.390625 4.76197 0.390625 6.0251C0.390625 7.2632 1.37665 8.27455 2.60346 8.31423V25.8793C1.37665 25.9189 0.390625 26.9291 0.390625 28.166C0.390625 29.4291 1.41693 30.4566 2.67823 30.4566H7.64162L4.82758 36.3532C4.54102 36.9517 4.50562 37.6279 4.72779 38.2575C4.95026 38.8871 5.40254 39.3916 6.0019 39.6781C6.34126 39.8402 6.70503 39.922 7.07124 39.922C7.3517 39.922 7.63338 39.874 7.9062 39.7773C8.53487 39.5551 9.03871 39.1026 9.32527 38.5029L10.6503 35.7282H24.9714L26.2964 38.5029C26.5812 39.1016 27.0841 39.5539 27.7121 39.7767C27.9859 39.8737 28.2685 39.922 28.5499 39.922C28.9161 39.922 29.2801 39.8402 29.6198 39.6778C30.2189 39.3916 30.6714 38.8871 30.8936 38.2575C31.1158 37.6279 31.0804 36.9517 30.7941 36.3535L27.9798 30.4566H32.5516C33.8142 30.4566 34.8414 29.4288 34.8414 28.1656C34.8414 27.1125 34.1257 26.2238 33.1553 25.9586V9.3741L39.264 4.00636C39.5155 3.7848 39.6653 3.47687 39.6851 3.13935C39.7053 2.79999 39.5924 2.47407 39.3671 2.2226ZM10.8121 2.41852C10.8121 1.69312 11.402 1.1026 12.1271 1.1026H23.6295C24.3555 1.1026 24.9463 1.69312 24.9463 2.41852V3.73444H10.8121V2.41852ZM8.2596 37.9942C8.10915 38.3091 7.84395 38.5471 7.51253 38.6643C7.18141 38.7812 6.82557 38.7632 6.51094 38.6127C6.19661 38.4623 5.95857 38.1965 5.84138 37.8645C5.72419 37.5327 5.7425 37.1769 5.89295 36.8626L8.95021 30.4566H11.8592L8.2596 37.9942ZM11.214 34.5475L13.1677 30.4566H22.454L24.4074 34.5475H11.214ZM29.7288 36.8629C29.8789 37.1769 29.8972 37.5324 29.78 37.8645C29.6628 38.1965 29.4251 38.4623 29.1105 38.6127C28.7952 38.7632 28.4388 38.7815 28.1067 38.6637C27.7759 38.5465 27.5116 38.3091 27.3624 37.9954C27.3624 37.9948 27.3621 37.9945 27.3621 37.9942L23.7623 30.4566H26.6712L29.7288 36.8629ZM31.9745 25.8771H19.3674C19.0415 25.8771 18.7772 26.1414 18.7772 26.4676C18.7772 26.7939 19.0415 27.0582 19.3674 27.0582H32.5516C33.1632 27.0582 33.6606 27.555 33.6606 28.1656C33.6606 28.7778 33.1632 29.2759 32.5516 29.2759H2.67823C2.06787 29.2759 1.57135 28.7778 1.57135 28.1656C1.57135 27.555 2.06787 27.0582 2.67823 27.0582H3.14118C3.15796 27.0594 3.17475 27.0603 3.19153 27.0603C3.20771 27.0603 3.22419 27.0597 3.24067 27.0585C3.25226 27.0579 3.26447 27.0582 3.27576 27.0582H16.6657C16.9916 27.0582 17.2559 26.7939 17.2559 26.4676C17.2559 26.1414 16.9916 25.8771 16.6657 25.8771H3.78419V8.31606H16.5482C16.8744 8.31606 17.1387 8.05177 17.1387 7.72585C17.1387 7.39961 16.8744 7.13533 16.5482 7.13533H2.67823C2.06787 7.13533 1.57135 6.63728 1.57135 6.0254C1.57135 5.41322 2.06787 4.91517 2.67823 4.91517H32.0103L29.4843 7.13533H19.2524C18.9261 7.13533 18.6618 7.39961 18.6618 7.72585C18.6618 8.05177 18.9261 8.31606 19.2524 8.31606H28.1409L25.5066 10.6314C25.1243 10.2191 24.7034 10.0098 24.2542 10.0098C24.2463 10.0098 24.2383 10.0098 24.2301 10.0098C23.3024 10.025 22.5632 10.9101 21.7072 11.9348C21.3584 12.3526 20.9916 12.7915 20.5967 13.194C20.5817 13.2077 20.5671 13.2221 20.5533 13.2373C19.9106 13.8846 19.1925 14.4303 18.3533 14.6302H18.353H18.3527C15.6763 15.2646 12.4796 14.9872 10.3986 13.9398C9.33046 13.4021 8.28798 13.3921 7.53847 13.9127C6.88173 14.3686 6.54664 15.159 6.64216 16.0266C6.76973 17.1839 7.62422 18.2215 8.94838 18.8474L9.42079 20.8603C9.53066 21.3309 9.81844 21.7313 10.2316 21.9883C10.5243 22.1698 10.8536 22.2632 11.1887 22.2632C11.3266 22.2632 11.4655 22.2474 11.6034 22.2153C12.5748 21.9852 13.1809 21.0071 12.9538 20.0339L12.8656 19.6561C13.0991 19.6689 13.3338 19.6775 13.5691 19.6811L13.6762 20.1346C13.7723 20.5442 14.0229 20.8924 14.3824 21.1152C14.7415 21.3382 15.1648 21.4081 15.5738 21.3123C15.9845 21.2162 16.3336 20.9653 16.5564 20.6052C16.7704 20.2597 16.8424 19.8551 16.7624 19.4626C16.7896 19.4596 16.8164 19.4562 16.8433 19.4532C18.1845 19.2978 19.567 19.1367 20.6394 18.595C21.2549 18.7891 21.8952 18.8739 22.5266 18.8739C23.2877 18.8739 24.0357 18.751 24.7101 18.548C24.7577 18.534 24.8041 18.5187 24.8508 18.5041C24.8533 18.5032 24.856 18.5022 24.8587 18.5013C27.049 17.7985 28.5373 16.3111 28.5785 14.7641C28.5895 14.2859 28.5404 14.0476 28.2401 13.6927L29.8063 12.3163C29.8148 12.3096 29.8237 12.3032 29.8316 12.2962C29.8395 12.2891 29.8462 12.2818 29.8536 12.2748L31.9742 10.4114V25.8771H31.9745ZM15.4642 19.0888L15.6021 19.683C15.6266 19.7861 15.6089 19.8929 15.5524 19.9842C15.4959 20.0754 15.4084 20.1386 15.3049 20.163C15.2027 20.1868 15.0962 20.1688 15.0049 20.1123C14.9137 20.0559 14.8502 19.9683 14.8261 19.8645L14.6112 18.9566C14.5484 18.6902 14.31 18.5022 14.0369 18.5022C14.0348 18.5022 14.0326 18.5022 14.0308 18.5022C13.4037 18.5089 12.7762 18.4797 12.168 18.4168C11.9788 18.3969 11.7905 18.4705 11.6641 18.6139C11.5378 18.7571 11.4887 18.9527 11.5323 19.1385L11.8042 20.3028C11.8836 20.6434 11.6718 20.9861 11.3336 21.066C11.1701 21.1042 11.0001 21.0755 10.8551 20.9855C10.7099 20.8954 10.6091 20.756 10.571 20.5918L10.0311 18.2914C9.9872 18.1052 9.85628 17.9517 9.67928 17.8797C8.60078 17.4393 7.90407 16.6983 7.81587 15.8976C7.76857 15.4673 7.91658 15.0876 8.21199 14.8825C8.59468 14.617 9.19832 14.6576 9.86788 14.9948C11.9303 16.0327 14.8349 16.3959 17.5263 15.9909C17.609 16.1658 17.7265 16.3221 17.8272 16.4557C17.8656 16.507 17.905 16.5589 17.941 16.6104C18.3069 17.1335 18.7299 17.551 19.1898 17.8781C18.4384 18.0793 17.5641 18.1815 16.7075 18.2807C16.4557 18.31 16.207 18.3387 15.9644 18.3698C15.7987 18.3908 15.6501 18.4812 15.5545 18.6182C15.4593 18.7552 15.4264 18.9264 15.4642 19.0888ZM18.9081 15.933C18.8642 15.8701 18.8169 15.8072 18.7702 15.7453C18.7696 15.7444 18.769 15.7434 18.7683 15.7425C19.4596 15.5527 20.0687 15.199 20.6134 14.7684C20.9302 15.466 21.5967 15.9473 22.5486 16.1377C23.3094 16.2903 23.7919 16.7551 23.9899 17.5193C22.276 17.9236 20.1465 17.7039 18.9081 15.933ZM25.1117 17.1463C24.7864 15.9806 23.9783 15.2201 22.7805 14.9802C21.821 14.7882 21.615 14.3076 21.5882 13.8654C21.9602 13.4738 22.2992 13.0683 22.6136 12.6917C23.1989 11.991 23.862 11.1969 24.2496 11.1905H24.253C24.3943 11.1905 24.5536 11.3355 24.6613 11.456L24.8691 11.6907C24.8697 11.6913 24.8703 11.6919 24.8707 11.6925L27.2974 14.4086C27.3624 14.4806 27.3868 14.5136 27.3957 14.5273C27.4 14.5578 27.4009 14.628 27.3984 14.7351C27.3749 15.6162 26.4499 16.5634 25.1117 17.1463ZM27.4543 12.8119L26.2931 11.5122L27.4589 10.4877L28.6088 11.7975L27.4543 12.8119ZM38.484 3.11982L29.4956 11.0181L28.3457 9.70797L30.0785 8.18483C30.0879 8.17751 30.0965 8.16957 30.105 8.16164L33.8679 4.85444C33.8941 4.8346 33.9194 4.81324 33.942 4.78944L37.3124 1.82709C37.3487 1.79535 37.4042 1.79657 37.4329 1.82862L38.4867 3.00934C38.5056 3.03071 38.5072 3.05604 38.5062 3.06916C38.5056 3.08411 38.5007 3.10486 38.484 3.11982Z" fill="#DDA3A9"></path> </g> <defs> <clipPath id="clip0"> <rect width="40" height="40" fill="white"></rect> </clipPath> </defs> </svg> 