<?xml version="1.0" encoding="UTF-8"?> <svg xmlns="http://www.w3.org/2000/svg" width="14" height="14" viewBox="0 0 14 14" fill="none"> <path d="M2.82812 1V2.08H1V13H13V2.08H11.1719V1H9.15625V2.08H4.84375V1H2.82812ZM3.14062 1.3H4.53125V2.755H3.14062V1.3ZM1.3125 12.7V4.825H12.6875V12.7H1.3125ZM9.46875 1.3H10.8594V2.755H9.46875V1.3ZM9.15625 2.38V3.04H11.1719V2.38H12.6875V4.525H1.3125V2.38H2.82812V3.04H4.84375V2.38H9.15625Z" fill="#dda3a9" stroke="#dda3a9" stroke-width="0.2"></path> <path d="M3.17188 8.1248H5.35938V6.1748H3.17188V8.1248ZM3.48438 6.4748H5.04688V7.8248H3.48438V6.4748Z" fill="#dda3a9" stroke="#dda3a9" stroke-width="0.2"></path> <path d="M10.8281 6.99951H7.07812V7.29951H10.8281V6.99951Z" fill="#dda3a9" stroke="#dda3a9" stroke-width="0.2"></path> <path d="M3.17188 11.4241H5.35938V9.47412H3.17188V11.4241ZM3.48438 9.77412H5.04688V11.1241H3.48438V9.77412Z" fill="#dda3a9" stroke="#dda3a9" stroke-width="0.2"></path> <path d="M10.8281 10.3008H7.07812V10.6008H10.8281V10.3008Z" fill="#dda3a9" stroke="#dda3a9" stroke-width="0.2"></path> </svg> 